<svg xmlns="http://www.w3.org/2000/svg" width="64" height="64" viewBox="0 0 64 64" fill="none">
  <defs>
    <linearGradient id="g" x1="10" y1="8" x2="54" y2="56" gradientUnits="userSpaceOnUse">
      <stop stop-color="#2563EB"/>
      <stop offset="0.55" stop-color="#7C3AED"/>
      <stop offset="1" stop-color="#06B6D4"/>
    </linearGradient>
    <filter id="s" x="-20%" y="-20%" width="140%" height="140%" color-interpolation-filters="sRGB">
      <feDropShadow dx="0" dy="6" stdDeviation="6" flood-color="#0B1220" flood-opacity="0.25"/>
    </filter>
  </defs>

  <g filter="url(#s)">
    <rect x="8" y="8" width="48" height="48" rx="16" fill="url(#g)"/>
    <path d="M23.2 22.6c.7-.7 1.8-.7 2.5 0L32 28.9l6.3-6.3c.7-.7 1.8-.7 2.5 0 .7.7.7 1.8 0 2.5L34.5 31.4l6.3 6.3c.7.7.7 1.8 0 2.5-.7.7-1.8.7-2.5 0L32 33.9l-6.3 6.3c-.7.7-1.8.7-2.5 0-.7-.7-.7-1.8 0-2.5l6.3-6.3-6.3-6.3c-.7-.7-.7-1.8 0-2.5z" fill="#FFFFFF" fill-opacity="0.95"/>
    <path d="M18 44.5c7.8 4.7 20.2 4.7 28 0" stroke="#FFFFFF" stroke-opacity="0.65" stroke-width="2.4" stroke-linecap="round"/>
  </g>
</svg>
